<svg xmlns="http://www.w3.org/2000/svg" width="1000" height="400" fill="none"><path fill="#000" d="M0 0h1000v400H0z"/><path d="M133.203 211.258V272h-33.008V165.945h31.25v19.336h1.172c4.785-12.793 16.602-20.703 32.227-20.703 22.363 0 36.816 15.82 36.718 39.844V272H168.75v-61.328c0-11.914-6.445-19.043-17.383-19.141-10.937.098-18.164 7.422-18.164 19.727Zm157.422 15.039v-60.352h32.813V272h-31.25v-19.531h-1.172c-4.688 12.793-16.504 20.898-32.422 20.898-21.68 0-36.231-15.722-36.328-39.844v-67.578h33.007v61.328c0 11.622 6.446 18.75 16.993 18.75 10.156 0 18.457-6.933 18.359-19.726Zm82.031-60.352 17.969 35.352 18.359-35.352h33.399l-29.883 52.93L443.359 272h-33.007l-19.727-35.547L371.289 272h-33.594l31.055-53.125-29.492-52.93h33.398Zm143.946 0v24.219h-19.336v48.633c.097 6.641 3.418 8.691 8.984 8.789 2.734.195 8.008-.098 11.719-.391v25.196c-3.223.488-8.692 1.074-16.407 1.171-23.339-.097-37.304-9.667-37.109-31.054v-52.344h-14.258v-24.219h14.258v-25.39h32.813v25.39h19.336Zm81.445 35.938v25.39h-65.235v-25.39h65.235Zm84.375-3.125c-.879-7.031-7.324-11.524-16.016-11.524-8.203 0-14.551 3.614-14.453 9.18-.098 4.004 3.027 7.422 12.109 9.18l20.118 3.906c21.093 4.102 31.25 13.281 31.445 28.711-.195 21.68-20.117 35.742-48.828 35.742-30.371 0-47.949-13.476-50.195-34.57h32.812c1.27 7.617 7.715 11.621 17.578 11.719 8.887-.098 15.039-3.516 15.235-9.375-.196-4.786-4.297-7.618-13.477-9.571l-18.164-3.32c-20.898-3.906-31.445-14.453-31.25-30.664-.195-20.996 17.871-33.594 46.484-33.594 28.516 0 45.899 12.988 47.266 34.18h-30.664Zm108.594-32.813v24.219H771.68v48.633c.097 6.641 3.418 8.691 8.984 8.789 2.734.195 8.008-.098 11.719-.391v25.196c-3.223.488-8.692 1.074-16.406 1.171-23.34-.097-37.305-9.667-37.11-31.054v-52.344h-14.258v-24.219h14.258v-25.39h32.813v25.39h19.336Zm12.109 76.563c-.098-23.535 18.164-31.934 39.258-33.203 7.715-.489 20.898-.977 25.39-1.172v-8.594c0-7.422-5.468-11.621-14.453-11.523-8.691-.098-14.355 3.808-15.625 10.742h-30.664c1.465-18.75 17.285-34.18 47.071-34.18 26.171 0 46.582 12.402 46.679 35.352V272h-31.054v-14.844h-.782c-5.761 10.742-16.015 16.699-30.859 16.797-20.313-.098-35.059-10.449-34.961-31.445Zm31.25-1.367c-.098 7.129 5.664 10.937 13.672 10.937 11.23 0 20.019-7.324 19.922-17.773v-6.836c-4.004.097-15.137.683-20.117 1.172-8.301.879-13.575 5.468-13.477 12.5Z" fill="#FFF01E"/></svg>